<svg width="329" height="71" viewBox="0 0 329 71" fill="none" xmlns="http://www.w3.org/2000/svg" style="background-color:white;">
    <path d="M8.848 54C6.64533 54 4.83467 53.3093 3.416 51.928C2.03467 50.5093 1.344 48.624 1.344 46.272C1.344 43.8827 2.42667 41.8293 4.592 40.112C6.75733 38.3573 9.38933 37.48 12.488 37.48H16.296V36.528C16.296 34.6987 15.9227 33.448 15.176 32.776C14.4293 32.104 13.0293 31.768 10.976 31.768C10.1173 31.768 9.09067 31.9547 7.896 32.328C6.73867 32.664 5.432 33.2053 3.976 33.952L2.352 29.528C3.95733 28.408 5.89867 27.4 8.176 26.504C10.4907 25.608 12.3947 25.16 13.888 25.16C19.7493 25.16 22.68 27.9973 22.68 33.672V44.648C22.68 46.7387 23.3333 49.072 24.64 51.648L18.704 54.168C17.7707 52.376 17.08 50.7707 16.632 49.352C14.5787 52.4507 11.984 54 8.848 54ZM11.2 48.288C12.6933 48.288 14.392 47.5227 16.296 45.992V42.24C14.3173 41.792 12.712 41.568 11.48 41.568C9.128 41.568 7.952 42.6133 7.952 44.704C7.952 45.7867 8.25067 46.664 8.848 47.336C9.44533 47.9707 10.2293 48.288 11.2 48.288ZM44.282 48.512C41.37 52.1707 38.85 54 36.722 54C34.0713 54 31.8873 52.9173 30.17 50.752C28.49 48.5867 27.65 45.8053 27.65 42.408C27.65 37.7413 28.938 33.8027 31.514 30.592C34.1273 27.3813 37.3193 25.776 41.09 25.776L44.226 26.224V25.16L43.554 12.056L51.226 10.656L50.498 39.44V44.368C50.498 46.608 51.058 49.184 52.178 52.096L46.13 54.616C45.0473 52.376 44.4313 50.3413 44.282 48.512ZM33.922 39.496C33.922 41.8853 34.3513 43.752 35.21 45.096C36.106 46.44 37.3753 47.112 39.018 47.112C40.698 47.112 42.434 46.44 44.226 45.096V33C41.986 32.552 40.3247 32.328 39.242 32.328C37.562 32.328 36.2553 32.9253 35.322 34.12C34.3887 35.3147 33.922 37.1067 33.922 39.496ZM55.9274 42.296C55.9274 37.5173 57.2154 33.4667 59.7914 30.144C62.3674 26.8213 65.3727 25.16 68.8074 25.16C72.2794 25.16 74.9674 26.28 76.8714 28.52C78.8127 30.76 79.7834 33.728 79.7834 37.424C79.7834 42.352 78.5327 46.4587 76.0314 49.744C73.5674 52.992 70.45 54.616 66.6794 54.616C63.5807 54.616 61.0047 53.4587 58.9514 51.144C56.9354 48.792 55.9274 45.8427 55.9274 42.296ZM73.5114 40.336C73.5114 34.9227 71.6634 32.216 67.9674 32.216C64.122 32.216 62.1994 34.7547 62.1994 39.832C62.1994 42.4827 62.7407 44.5547 63.8234 46.048C64.906 47.5413 66.3247 48.288 68.0794 48.288C69.8714 48.288 71.2154 47.616 72.1114 46.272C73.0447 44.8907 73.5114 42.912 73.5114 40.336ZM99.575 25.72C101.964 25.72 103.962 26.7653 105.567 28.856C107.21 30.9467 108.031 33.7653 108.031 37.312C108.031 42.2773 106.743 46.3093 104.167 49.408C101.628 52.4693 98.455 54 94.647 54C93.863 54 92.9857 53.944 92.015 53.832L92.295 64.528L84.623 65.928L85.351 40.392H85.407C85.2577 35.3893 84.847 30.9093 84.175 26.952L90.951 25.496C91.175 27.4747 91.3617 29.4347 91.511 31.376C91.5857 31.1893 91.959 30.6853 92.631 29.864C93.3403 29.0053 94.367 28.1093 95.711 27.176C97.055 26.2053 98.343 25.72 99.575 25.72ZM97.391 33C95.4123 33 93.4897 33.5413 91.623 34.624V39.44L91.847 47.448C93.863 47.784 95.3937 47.952 96.439 47.952C100.023 47.952 101.815 45.4693 101.815 40.504C101.815 35.5013 100.34 33 97.391 33ZM114.862 26.896V20.792L122.422 19.336L121.694 26.896H128.47L127.854 31.488H121.47L121.19 43.192C121.19 44.9467 121.358 46.1227 121.694 46.72C122.03 47.28 122.646 47.56 123.542 47.56C124.438 47.56 125.632 47.3547 127.126 46.944L127.462 50.92C124.998 52.9733 122.832 54 120.966 54C119.099 54 117.568 53.328 116.374 51.984C115.179 50.6027 114.582 48.8107 114.582 46.608L114.918 40.336L114.862 31.488H110.998L111.614 26.896H114.862Z" fill="black"/>
    <path d="M178.848 54C176.645 54 174.835 53.3093 173.416 51.928C172.035 50.5093 171.344 48.624 171.344 46.272C171.344 43.8827 172.427 41.8293 174.592 40.112C176.757 38.3573 179.389 37.48 182.488 37.48H186.296V36.528C186.296 34.6987 185.923 33.448 185.176 32.776C184.429 32.104 183.029 31.768 180.976 31.768C180.117 31.768 179.091 31.9547 177.896 32.328C176.739 32.664 175.432 33.2053 173.976 33.952L172.352 29.528C173.957 28.408 175.899 27.4 178.176 26.504C180.491 25.608 182.395 25.16 183.888 25.16C189.749 25.16 192.68 27.9973 192.68 33.672V44.648C192.68 46.7387 193.333 49.072 194.64 51.648L188.704 54.168C187.771 52.376 187.08 50.7707 186.632 49.352C184.579 52.4507 181.984 54 178.848 54ZM181.2 48.288C182.693 48.288 184.392 47.5227 186.296 45.992V42.24C184.317 41.792 182.712 41.568 181.48 41.568C179.128 41.568 177.952 42.6133 177.952 44.704C177.952 45.7867 178.251 46.664 178.848 47.336C179.445 47.9707 180.229 48.288 181.2 48.288Z" fill="black"/>
    <path d="M251.2 25.72C253.589 25.72 255.587 26.7653 257.192 28.856C258.835 30.9467 259.656 33.7653 259.656 37.312C259.656 42.2773 258.368 46.3093 255.792 49.408C253.253 52.4693 250.08 54 246.272 54C245.488 54 244.611 53.944 243.64 53.832L243.92 64.528L236.248 65.928L236.976 40.392H237.032C236.883 35.3893 236.472 30.9093 235.8 26.952L242.576 25.496C242.8 27.4747 242.987 29.4347 243.136 31.376C243.211 31.1893 243.584 30.6853 244.256 29.864C244.965 29.0053 245.992 28.1093 247.336 27.176C248.68 26.2053 249.968 25.72 251.2 25.72ZM249.016 33C247.037 33 245.115 33.5413 243.248 34.624V39.44L243.472 47.448C245.488 47.784 247.019 47.952 248.064 47.952C251.648 47.952 253.44 45.4693 253.44 40.504C253.44 35.5013 251.965 33 249.016 33ZM269.903 54C267.7 54 265.889 53.3093 264.471 51.928C263.089 50.5093 262.399 48.624 262.399 46.272C262.399 43.8827 263.481 41.8293 265.647 40.112C267.812 38.3573 270.444 37.48 273.543 37.48H277.351V36.528C277.351 34.6987 276.977 33.448 276.231 32.776C275.484 32.104 274.084 31.768 272.031 31.768C271.172 31.768 270.145 31.9547 268.951 32.328C267.793 32.664 266.487 33.2053 265.031 33.952L263.407 29.528C265.012 28.408 266.953 27.4 269.231 26.504C271.545 25.608 273.449 25.16 274.943 25.16C280.804 25.16 283.735 27.9973 283.735 33.672V44.648C283.735 46.7387 284.388 49.072 285.695 51.648L279.759 54.168C278.825 52.376 278.135 50.7707 277.687 49.352C275.633 52.4507 273.039 54 269.903 54ZM272.255 48.288C273.748 48.288 275.447 47.5227 277.351 45.992V42.24C275.372 41.792 273.767 41.568 272.535 41.568C270.183 41.568 269.007 42.6133 269.007 44.704C269.007 45.7867 269.305 46.664 269.903 47.336C270.5 47.9707 271.284 48.288 272.255 48.288ZM315.529 47H316.257L318.049 39.328L320.961 25.496L327.793 26.336L323.705 40.224L320.289 53.328L311.105 54.168L308.025 40.56L307.745 39.664L303.993 53.328L295.089 54.168L291.841 40.56L287.977 26.952L295.313 25.552L297.609 37.872L299.625 47H300.353L305.169 31.04L303.993 26.952L311.217 25.552L313.569 37.872L315.529 47Z" fill="black"/>
    <ellipse cx="142.297" cy="38.5708" rx="2.26324" ry="2.9719" transform="rotate(-24.6581 142.297 38.5708)" fill="#55BDCA"/>
    <ellipse cx="155.825" cy="38.2207" rx="2.26413" ry="2.97277" transform="rotate(-159.111 155.825 38.2207)" fill="#55BDCA"/>
    <ellipse cx="151.761" cy="33.9201" rx="2.44823" ry="3.43171" transform="rotate(-166.072 151.761 33.9201)" fill="#55BDCA"/>
    <ellipse cx="145.998" cy="34.0211" rx="2.44735" ry="3.43113" transform="rotate(161.927 145.998 34.0211)" fill="#55BDCA"/>
    <ellipse cx="149.116" cy="42.6459" rx="4.64922" ry="4.09132" fill="#55BDCA"/>
    <ellipse cx="147.814" cy="43.9477" rx="4.46326" ry="2.78954" fill="#55BDCA"/>
    <ellipse cx="150.418" cy="43.9477" rx="4.46326" ry="2.78954" fill="#55BDCA"/>
    <ellipse cx="207.297" cy="38.5708" rx="2.26324" ry="2.9719" transform="rotate(-24.6581 207.297 38.5708)" fill="#F27D42"/>
    <ellipse cx="207.297" cy="38.5708" rx="2.26324" ry="2.9719" transform="rotate(-24.6581 207.297 38.5708)" fill="#F27D42"/>
    <ellipse cx="207.297" cy="38.5708" rx="2.26324" ry="2.9719" transform="rotate(-24.6581 207.297 38.5708)" fill="#F27D42"/>
    <ellipse cx="220.825" cy="38.2207" rx="2.26413" ry="2.97277" transform="rotate(-159.111 220.825 38.2207)" fill="#F27D42"/>
    <ellipse cx="220.825" cy="38.2207" rx="2.26413" ry="2.97277" transform="rotate(-159.111 220.825 38.2207)" fill="#F27D42"/>
    <ellipse cx="220.825" cy="38.2207" rx="2.26413" ry="2.97277" transform="rotate(-159.111 220.825 38.2207)" fill="#F27D42"/>
    <ellipse cx="216.761" cy="33.9201" rx="2.44823" ry="3.43171" transform="rotate(-166.072 216.761 33.9201)" fill="#F27D42"/>
    <ellipse cx="216.761" cy="33.9201" rx="2.44823" ry="3.43171" transform="rotate(-166.072 216.761 33.9201)" fill="#F27D42"/>
    <ellipse cx="216.761" cy="33.9201" rx="2.44823" ry="3.43171" transform="rotate(-166.072 216.761 33.9201)" fill="#F27D42"/>
    <ellipse cx="210.998" cy="34.0211" rx="2.44735" ry="3.43113" transform="rotate(161.927 210.998 34.0211)" fill="#F27D42"/>
    <ellipse cx="210.998" cy="34.0211" rx="2.44735" ry="3.43113" transform="rotate(161.927 210.998 34.0211)" fill="#F27D42"/>
    <ellipse cx="210.998" cy="34.0211" rx="2.44735" ry="3.43113" transform="rotate(161.927 210.998 34.0211)" fill="#F27D42"/>
    <ellipse cx="214.116" cy="42.6459" rx="4.64922" ry="4.09132" fill="#F27D42"/>
    <ellipse cx="214.116" cy="42.6459" rx="4.64922" ry="4.09132" fill="#F27D42"/>
    <ellipse cx="214.116" cy="42.6459" rx="4.64922" ry="4.09132" fill="#F27D42"/>
    <ellipse cx="212.814" cy="43.9477" rx="4.46326" ry="2.78954" fill="#F27D42"/>
    <ellipse cx="212.814" cy="43.9477" rx="4.46326" ry="2.78954" fill="#F27D42"/>
    <ellipse cx="212.814" cy="43.9477" rx="4.46326" ry="2.78954" fill="#F27D42"/>
    <ellipse cx="215.418" cy="43.9477" rx="4.46326" ry="2.78954" fill="#F27D42"/>
    <ellipse cx="215.418" cy="43.9477" rx="4.46326" ry="2.78954" fill="#F27D42"/>
    <ellipse cx="215.418" cy="43.9477" rx="4.46326" ry="2.78954" fill="#F27D42"/>
</svg>
